<?xml version="1.0" encoding="UTF-8"?><svg id="icons" xmlns="http://www.w3.org/2000/svg" viewBox="0 0 671.34 134.42"><defs><style>.cls-1{fill:#17ceff;stroke-width:0px;}</style></defs><path class="cls-1" d="M103.11,11.55s.06-.05.14-.14c-.15.57-.28,1.08-.38,1.64-.54,2.61-.31,5.2.23,7.81.49,2.43,1.13,4.79,1.65,7.23.73,3.4.99,6.8.39,10.26-.2,1.19-.51,2.34-.78,3.5.08,0,.16-.01.26-.05,4.27-1.5,8.6-1.7,13.02-.71,2.26.51,4.52,1.11,6.8,1.67,2.53.63,5.07,1.13,7.68.88.99-.08,1.91-.3,2.84-.44-3.33,1.56-5.65,4.24-7.68,7.28-1.37,2.11-2.67,4.25-4.04,6.36-2.22,3.32-5.01,6.01-8.55,7.88-.16.1-.3.16-.45.22s-.25.14-.46.25c.16.1.26.14.36.19,3.54,1.59,6.35,4.08,8.63,7.1,1.49,2.03,2.78,4.15,4.16,6.25,1.4,2.16,2.83,4.32,4.74,6.09,1.15,1.1,2.42,1.97,3.85,2.67-1.4-.37-2.8-.65-4.22-.67-2.57-.13-5.04.35-7.5.95-2.58.59-5.15,1.22-7.76,1.68-3.12.53-6.25.42-9.35-.28-.57-.15-1.1-.33-1.68-.48-.17-.07-.38-.15-.63-.21.14.45.28.87.4,1.28,1.11,3.55,1.24,7.18.6,10.82-.32,2.06-.82,4.09-1.2,6.12-.59,2.74-1,5.52-.74,8.33.1,1.43.42,2.8.92,4.11l-.07-.03c-1.22-2.28-3.03-4.01-5.18-5.39-1.82-1.21-3.72-2.3-5.6-3.38-3.34-1.87-6.53-3.91-9-6.86-1.13-1.33-2.11-2.76-2.91-4.32-.06-.14-.17-.27-.25-.46-.34.66-.65,1.21-1,1.78-1.36,2.39-3.19,4.44-5.3,6.21-1.94,1.64-4.06,2.97-6.23,4.29-1.94,1.25-3.87,2.49-5.62,4.06-1.56,1.4-2.85,3.02-3.83,4.94.06-.25.13-.51.21-.71.08-.29.14-.54.17-.81.48-1.87.49-3.78.27-5.7-.33-2.64-.96-5.2-1.6-7.77-.78-3.38-1.24-6.78-.95-10.25.18-1.72.49-3.38,1.06-4.98.03-.07.06-.14.06-.25-.13.03-.21.03-.26.05-4.49,1.57-9,1.69-13.57.6-1.99-.49-4-1.02-6.01-1.56-2.79-.69-5.61-1.19-8.5-.81-.8.11-1.55.29-2.33.45,3.38-1.58,5.67-4.27,7.66-7.25,1.58-2.34,3.08-4.76,4.68-7.06,2.29-3.29,5.21-5.81,8.83-7.57.06-.05.11-.07.21-.12-.09-.08-.11-.12-.14-.14-4.41-1.98-7.54-5.35-10.08-9.32-1.32-2.05-2.6-4.11-3.92-6.16-1.3-2-2.84-3.81-4.82-5.21-.59-.4-1.24-.78-1.67-1.07.89.16,1.95.39,3.07.48,2.4.25,4.72-.16,7.06-.73,2.37-.55,4.75-1.22,7.11-1.74,3.07-.71,6.17-.89,9.27-.31,1.04.18,2.09.53,3.11.78.15.02.29.08.36.1-.29-1.15-.64-2.25-.86-3.37-.72-3.24-.61-6.45-.03-9.68.45-2.6,1.02-5.19,1.49-7.83.44-2.57.61-5.16.03-7.75-.16-.7-.37-1.34-.58-2.02.37.55.7,1.12,1.12,1.65,1.26,1.7,2.84,3.02,4.62,4.13,1.71,1.09,3.42,2.06,5.19,3.01,3.6,2.01,7.01,4.3,9.48,7.65.82,1.13,1.51,2.36,2.23,3.53.06.14.14.25.23.41.29-.52.53-1.02.82-1.54,1.33-2.41,3.12-4.47,5.21-6.29,1.98-1.75,4.25-3.14,6.45-4.55,2.09-1.34,4.19-2.68,5.98-4.47,1.27-1.28,2.32-2.68,3.08-4.28ZM98.14,25.22c-.03-.21-.12-.4-.2-.68-1.81,1.14-3.6,2.21-5.31,3.39-2.54,1.76-4.62,3.94-6.23,6.55-1.6,2.58-2.57,5.37-3.3,8.26-.68,2.87-1.13,5.75-1.43,8.65-.04.5-.1,1.03-.18,1.52-.12-.4-.15-.82-.19-1.19-.59-4.45-1.37-8.83-2.83-13.08-1.39-3.94-3.63-7.27-6.99-9.78-1.57-1.23-3.32-2.22-5.08-3.17-.55-.3-1.11-.61-1.7-.92l-.15.38c-.35,1.37-.66,2.72-1,4.05-.61,2.5-.92,5.04-.77,7.61.23,3.75,1.52,7.18,3.31,10.41,1.72,3.12,3.79,6.07,5.96,8.89.2.2.35.42.48.59-1.84-1.34-3.7-2.77-5.64-4.07-2.49-1.72-5.11-3.22-7.96-4.21-3.54-1.27-7.16-1.58-10.83-.76-2.23.49-4.41,1.16-6.59,1.75-.08,0-.1.04-.19.08.84,1.45,1.67,2.86,2.49,4.27,3.17,5.46,7.87,8.79,13.95,10.37,2.7.69,5.45,1.17,8.23,1.49.95.11,1.92.18,2.9.3-.7.16-1.36.21-2.01.34-3.95.63-7.86,1.44-11.58,2.88-4.74,1.78-8.52,4.75-11.22,9.07-.94,1.53-1.85,3.11-2.77,4.69l-.35.57.21.08c1.69.44,3.37.92,5.07,1.33,2.44.55,4.92.72,7.43.42,2.95-.4,5.67-1.53,8.27-2.94,3.28-1.82,6.31-4.01,9.24-6.33.47-.37.95-.77,1.41-1.14l.02.05c-.08.09-.17.21-.24.3-.28.4-.58.76-.87,1.16-2.51,3.36-4.92,6.76-6.63,10.61-1.33,2.89-2.03,5.9-2.09,9.1,0,2.75.56,5.4,1.27,7.99.24.89.49,1.75.72,2.64.14-.06.25-.14.35-.18,1.37-.84,2.73-1.64,4.1-2.48,5.12-3.22,8.38-7.83,10-13.62.79-2.74,1.29-5.56,1.68-8.39.13-1.02.23-2.05.36-3.16.01-.23.06-.45.08-.68.18,1.23.33,2.32.52,3.43.59,3.66,1.28,7.28,2.5,10.75,1.27,3.74,3.3,6.98,6.37,9.54,2,1.64,4.25,2.87,6.49,4.13l1.09.56.1-.24c.38-1.52.75-3.04,1.08-4.54.54-2.21.87-4.42.79-6.68-.13-3.43-1.18-6.64-2.69-9.68-1.71-3.36-3.84-6.44-6.13-9.44-.37-.47-.72-.97-1.09-1.44.17.07.28.19.44.3,3.2,2.52,6.52,4.94,10.19,6.78,3.14,1.59,6.42,2.52,9.96,2.63,2.59.09,5.1-.41,7.54-1.05l3.89-1.05c-.07-.11-.12-.21-.16-.3-.74-1.21-1.52-2.44-2.25-3.69-3.18-5.42-7.85-8.94-13.87-10.66-3-.85-6.07-1.42-9.14-1.79-.95-.11-1.94-.23-2.89-.33.95-.17,1.83-.3,2.78-.47,3.49-.58,6.93-1.3,10.26-2.46,5.3-1.8,9.41-5.07,12.25-9.93.85-1.52,1.73-3,2.6-4.48.03-.07.02-.15.03-.18-.07-.03-.09-.08-.12-.09-1.62-.42-3.28-.85-4.91-1.23-5.4-1.31-10.55-.48-15.4,2.17-2.96,1.63-5.76,3.52-8.44,5.54-1.02.74-2,1.5-2.98,2.26-.02-.05,0-.08,0-.08,2.09-2.62,4.06-5.32,5.8-8.16,1.33-2.21,2.45-4.5,3.17-6.95.87-2.95,1.13-5.95.76-8.96-.31-2.47-1.03-4.83-1.7-7.21Z"/><path class="cls-1" d="M81.41,20.65c.07.31.16.58.22.84.38,1.43,1.03,2.76,1.76,4.01.13.17.16.3,0,.48-1.11,1.26-1.77,2.71-1.88,4.37l-.03.07-.18-1.03c-.25-1.25-.83-2.37-1.67-3.34-.25-.26-.25-.38-.07-.71.78-1.44,1.49-2.9,1.79-4.53l.07-.17Z"/><path class="cls-1" d="M112.5,33.49c.06-.05.16-.1.32-.19-1,1.59-1.58,3.22-2.06,4.9,0,.12-.14.26-.26.25-1.68.12-3.19.7-4.47,1.81-.01.03-.05.02-.08,0,.3-.44.59-.87.85-1.33.57-.92.75-1.96.83-3.04.03-.27.12-.39.43-.46,1.59-.39,3.08-1.02,4.44-1.94Z"/><path class="cls-1" d="M90.08,42.61c.55-.77,1.05-1.61,1.41-2.21-.4,2.86-.84,5.91-1.28,8.99-.29,1.99-.66,3.99-1.5,5.88-.06.14-.12.31-.21.43-1,2.18-2.44,4.07-4.09,5.79-.63.66-1.35,1.28-2.08,1.99-.03-.13-.07-.23-.07-.31-.04-.69-.09-1.35-.1-2.03-.05-2.05.12-4.05.58-6.05.1-.55.28-1.08.45-1.61.58-1.63,1.4-3.17,2.41-4.59,1.49-2.1,2.99-4.16,4.48-6.27Z"/><path class="cls-1" d="M104.78,55.07c.52-.11,1.06-.25,1.58-.36-1.17.84-2.36,1.71-3.56,2.62-1.76,1.32-3.52,2.71-5.29,4.03-3.12,2.4-6.7,3.38-10.55,3.46-1.12.02-2.23.01-3.38-.01-.02-.05-.04-.1-.03-.13l1.18-1.43c.23-.27.47-.48.74-.74,1.73-1.81,3.66-3.34,5.95-4.4,1.72-.82,3.56-1.23,5.37-1.57,2.66-.48,5.32-.95,7.99-1.47Z"/><path class="cls-1" d="M71.46,41.73c-.05-.38-.16-.78-.28-1.27.71,1,1.32,1.96,1.97,2.9,1.42,2,2.87,4.02,4.29,6.03,2.53,3.49,3.38,7.49,3.25,11.74-.01.03,0,.08,0,.12,0,.71-.07,1.44-.09,2.19-.03-.01-.08,0-.13.03-.7-.64-1.44-1.26-2.09-1.92-1.89-1.92-3.5-4.04-4.46-6.58-.67-1.78-.99-3.66-1.25-5.56-.4-2.55-.8-5.1-1.19-7.68Z"/><path class="cls-1" d="M120.45,63.23c.19-.16.32-.19.54-.06,1.23.7,2.47,1.36,3.86,1.76.32.09.69.16,1.05.26-.05.02-.1.04-.11.07-1.67.28-3.22.89-4.7,1.68-.22.15-.37.13-.58-.04-1.35-1.1-2.86-1.67-4.71-1.74.69-.12,1.24-.21,1.81-.34,1.07-.28,2.02-.86,2.83-1.6Z"/><path class="cls-1" d="M54.74,36.45c.3.04.44.18.47.51.13,1.64.79,3.06,1.88,4.3.05.06.11.12.13.17-.49-.36-1.05-.74-1.59-1.08-.94-.54-1.96-.75-3-.85-.27-.03-.39-.12-.49-.36-.53-1.65-1.18-3.18-2.2-4.59,1.51.89,3.1,1.49,4.8,1.9Z"/><path class="cls-1" d="M93.4,67.38c1.29.44,2.52,1.14,3.68,1.92,2.25,1.62,4.5,3.25,6.76,4.84.67.51,1.43.9,2.13,1.34.05.06.09.08.12.09-3.68-.53-7.32-1.09-10.99-1.65-3.37-.53-6.24-2.08-8.74-4.37-1.02-.93-1.91-1.97-2.92-3.01.21-.03.31-.07.39-.08,1.03-.1,2.09-.15,3.16-.15,1.42.02,2.89.13,4.31.47.74.14,1.45.35,2.1.61Z"/><path class="cls-1" d="M65.68,57.13c2.04.27,4.07.57,5.97,1.46,2.15.99,4.01,2.38,5.7,4.01l.59.6c.47.51.89,1.04,1.45,1.62-1.05.13-2.03.21-2.99.22-.45.02-.92.02-1.39,0-1.88-.08-3.7-.38-5.46-1.05-.42-.13-.8-.28-1.2-.48-1.58-.72-2.95-1.75-4.37-2.76-2.09-1.52-4.23-3.02-6.33-4.51-.21-.17-.47-.31-.68-.47.44.1.91.21,1.4.29,2.44.35,4.87.74,7.32,1.09Z"/><path class="cls-1" d="M79.29,66.57l-.08.21c-.65.81-1.33,1.61-2.06,2.35-1.27,1.28-2.65,2.43-4.2,3.4-1.74,1.05-3.62,1.68-5.61,2.07-2.62.49-5.24.95-7.86,1.44-.86.17-1.71.38-2.55.6-.08,0-.16.01-.21.03-.03-.01-.02-.05-.02-.05.22-.15.43-.27.65-.42,1.95-1.48,3.95-2.98,5.9-4.46,1.55-1.17,3.05-2.43,4.76-3.33,2.64-1.32,5.48-1.84,8.4-1.9.94-.06,1.9.01,2.88.05Z"/><path class="cls-1" d="M82.2,68.82c0-.32.02-.63.07-1.05,1.68,1.36,3.07,2.83,4.36,4.47,1.98,2.59,3.07,5.5,3.54,8.67.39,2.78.82,5.54,1.25,8.34.11.52.23,1.01.36,1.66-.51-.8-.95-1.5-1.4-2.16-1.43-1.97-2.9-3.96-4.31-5.96-1.51-2.08-2.83-4.32-3.41-6.91-.53-2.32-.65-4.68-.45-7.06Z"/><path class="cls-1" d="M80.51,67.86l.05.58c.19,2.78.06,5.55-.63,8.26-.16.69-.37,1.32-.64,1.97-.54,1.33-1.27,2.55-2.12,3.76-1.62,2.25-3.23,4.46-4.82,6.72-.45.61-.83,1.26-1.25,1.92.18-.84.35-1.65.48-2.47.38-2.31.7-4.69,1.04-7.02.27-1.76.59-3.54,1.27-5.21.08-.21.21-.43.31-.67.99-2.06,2.37-3.9,3.96-5.56.74-.74,1.5-1.46,2.35-2.27Z"/><path class="cls-1" d="M41.98,64.39c.1-.04.34-.06.4,0,1.38,1.11,2.89,1.8,4.67,1.93l-.39.08c-1.58.16-2.93.76-4.11,1.8-.17.13-.3.16-.49.04-1.24-.66-2.5-1.29-3.88-1.73-.36-.1-.68-.19-1.12-.29,1.81-.34,3.38-.98,4.92-1.83Z"/><path class="cls-1" d="M110.45,91.93c.2,0,.34.06.4.28.51,1.68,1.2,3.23,2.24,4.69-1.57-.95-3.25-1.51-4.97-1.97-.12,0-.25-.18-.27-.31-.13-1.64-.76-3.13-1.88-4.42t0-.08c.47.31.93.65,1.45.94.94.54,1.96.75,3.03.87Z"/><path class="cls-1" d="M81.45,100.98c.01.16.04.29.07.42.17,1.46.76,2.74,1.75,3.85.25.26.3.44.08.79-.79,1.47-1.48,2.98-1.83,4.63-.43-1.8-1.19-3.46-2.17-5.06,1.22-1.34,1.94-2.84,2.11-4.64Z"/><path class="cls-1" d="M56.81,91.18s.06-.05.11-.07c-.32.51-.7,1.03-.96,1.6-.48.88-.68,1.87-.72,2.85-.01.23-.06.34-.28.4-1.69.43-3.26,1.07-4.72,2.03,0,0-.03-.01-.08,0l.48-.88c.7-1.23,1.12-2.57,1.46-3.91.06-.14.19-.28.31-.27,1.66-.08,3.14-.68,4.41-1.76Z"/><path class="cls-1" d="M360.94,96.1l-2.33-15.22,11.58,6.35c5.14,1.4,9.15,2.05,13.45,2.05,7.75,0,11.58-2.8,11.58-7.47s-2.9-7-13.91-9.81c-15.5-3.92-22.32-9.34-22.32-19.89s8.4-18.12,25.49-18.12c7.94,0,14.66.93,21.76,2.61l2.24,14.66-11.21-5.7c-3.83-1.12-7.47-1.59-11.58-1.59-6.91,0-11.39,2.52-11.39,6.72s2.43,6.82,13.54,9.62c15.97,4.02,22.79,9.71,22.79,19.98,0,11.3-9.25,18.96-26.15,18.86-10.74,0-18.12-1.87-23.53-3.08Z"/><path class="cls-1" d="M417.76,84.33v-24.47h-8.22v-1.31l19.42-19.33h3.27v11.58h14.38v9.06h-14.38v23.35c0,3.27,1.87,5.04,5.14,5.04,2.71,0,5.88-.47,9.9-1.4l-1.59,9.71c-3.55,1.21-7.47,2.33-13.07,2.33-9.62,0-14.85-5.14-14.85-14.57Z"/><path class="cls-1" d="M485.53,97.59l-1.03-8.69c-2.33,5.79-7.84,10.09-16.53,10.09-10.18,0-16.25-7-16.25-16.25v-19.61l-2.8-9.25,17.37-4.95v32.13c0,5.32,2.99,8.59,8.03,8.59s9.06-3.64,9.06-10.18v-16.44l-2.71-9.15,17.28-4.95v39.13l3.18,9.53h-15.6Z"/><path class="cls-1" d="M503.95,74.24c0-16.81,9.62-24.75,19.61-24.75,7.1,0,10.93,3.36,14.19,6.91v-11.67l-2.8-9.15,17.28-4.86v57.71l3.08,9.25-15.5-.09-1.12-8.69c-2.9,5.7-8.4,10.09-16.06,10.09-8.97,0-18.68-7.38-18.68-24.75ZM537.95,76.58v-13.17c-2.43-2.43-5.14-4.02-9.06-4.02-5.98,0-10.27,4.39-10.27,14.57s3.83,14.38,9.53,14.38,9.81-4.11,9.81-11.77Z"/><path class="cls-1" d="M561.46,88.44v-25.4l-2.8-9.15,17.37-4.95v39.5l2.05,9.15h-18.58l1.96-9.15Z"/><path class="cls-1" d="M581.32,74.15c0-15.69,11.21-24.84,26.34-24.84s26.15,9.15,26.15,24.84-11.11,24.93-26.15,24.93-26.34-9.25-26.34-24.93ZM618.58,74.15c0-10.46-4.2-14.85-10.93-14.85s-11.11,4.39-11.11,14.85,4.3,14.94,11.02,14.94,11.02-4.48,11.02-14.94Z"/><path class="cls-1" d="M208.59,83.73c.34,8.15,6.17,5.57,6.17,10.81,0,2.06-1.2,2.74-4.97,2.74h-15.09c-3.6,0-4.97-.69-4.97-2.74,0-4.8,5.06-3.09,4.97-10.81l-.51-29.33-17.07,36.71c-.77,1.63-1.54,2.32-3.52,2.74-1.97.43-3.09-.34-3.6-1.63l-15.78-37.31-.94,31.39c-.17,5.4,4.29,5.4,4.29,8.49,0,1.97-1.29,2.4-3.94,2.4h-8.49c-3.17,0-4.2-.6-4.2-2.49,0-2.83,4.89-3,5.15-8.4l1.8-37.13c.26-6.18-5.15-5.15-5.15-9.18,0-2.06,1.29-2.74,4.46-2.74h11.49c1.8,0,3,.77,3.77,2.4l14.84,34.3,16.04-34.22c.86-1.71,1.97-2.49,3.77-2.49h10.89c3.17,0,4.55.69,4.55,2.74,0,4.03-5.4,2.92-5.15,9.18l1.2,34.56Z"/><path class="cls-1" d="M266.73,91.46c0,3.4-5.64,6.54-10.03,6.54-3.85,0-6.71-1.88-8.33-6.45-4.57,4.66-10.56,6.45-15.94,6.45-9.49,0-16.03-5.46-16.03-12.89,0-8.5,7.43-14.86,21.04-14.86,1.61,0,3.04.18,5.91.45-1.52-4.84-3.67-8.95-9.76-8.95-3.49,0-7.34,1.7-10.3,3.31-1.7,1.07-3.85-.27-2.42-2.78,2.33-4.03,9.31-8.86,18.08-8.86,12.27,0,15.4,8.68,17.55,15.94l4.57,15.58c.9,3.13,1.88,4.92,4.03,4.84.98-.09,1.61.63,1.61,1.7ZM246.58,84.47c-.18-1.25-.98-3.49-1.88-6.18-.72-2.06-2.95-2.96-5.91-2.96-5.64,0-9.13,2.96-9.13,7.34,0,4.74,3.58,8.24,8.95,8.24,4.48,0,8.68-2.95,7.97-6.45Z"/><path class="cls-1" d="M304.42,54.3c2.78,0,4.39.63,4.39,2.51,0,3.94-3.94,2.24-6.8,9.67l-11.1,28.65c-5.1,13.07-9.49,20.95-21.22,20.95-5.55,0-11.82-2.95-11.82-9.22,0-3.49,2.24-6.98,6.36-6.98,6,0,5.01,9.4,10.21,9.4,2.69,0,4.83-3.04,4.83-7.07,0-1.7-.45-3.49-1.16-5.46l-12.09-30.26c-2.86-7.43-6.8-5.73-6.8-9.67,0-2.06,1.61-2.51,4.12-2.51h15.4c2.78,0,4.39.63,4.39,2.51,0,3.94-5.01,2.24-2.15,9.67l7.43,19.07,7.07-19.07c2.86-7.43-2.06-5.73-2.06-9.67,0-2.06,1.61-2.51,4.12-2.51h6.89Z"/><path class="cls-1" d="M355.08,91.46c0,3.4-5.64,6.54-10.03,6.54-3.85,0-6.71-1.88-8.33-6.45-4.57,4.66-10.56,6.45-15.94,6.45-9.49,0-16.03-5.46-16.03-12.89,0-8.5,7.43-14.86,21.04-14.86,1.61,0,3.04.18,5.91.45-1.52-4.84-3.67-8.95-9.76-8.95-3.49,0-7.34,1.7-10.3,3.31-1.7,1.07-3.85-.27-2.42-2.78,2.33-4.03,9.31-8.86,18.08-8.86,12.27,0,15.4,8.68,17.55,15.94l4.57,15.58c.9,3.13,1.88,4.92,4.03,4.84.98-.09,1.61.63,1.61,1.7ZM334.93,84.47c-.18-1.25-.98-3.49-1.88-6.18-.72-2.06-2.95-2.96-5.91-2.96-5.64,0-9.13,2.96-9.13,7.34,0,4.74,3.58,8.24,8.95,8.24,4.48,0,8.68-2.95,7.97-6.45Z"/><path class="cls-1" d="M573.77,22.03s.01-.01.03-.03c-.04.14-.07.26-.09.39-.13.62-.07,1.25.05,1.87.12.58.27,1.15.4,1.73.18.81.24,1.63.09,2.46-.05.28-.12.56-.19.84.02,0,.04,0,.06-.01,1.02-.36,2.06-.41,3.11-.17.54.12,1.08.27,1.63.4.61.15,1.21.27,1.84.21.24-.02.46-.07.68-.11-.8.37-1.35,1.01-1.84,1.74-.33.51-.64,1.02-.97,1.52-.53.79-1.2,1.44-2.05,1.89-.04.02-.07.04-.11.05s-.06.03-.11.06c.04.02.06.03.09.04.85.38,1.52.98,2.06,1.7.36.49.67.99.99,1.5.33.52.68,1.03,1.13,1.46.27.26.58.47.92.64-.34-.09-.67-.16-1.01-.16-.62-.03-1.2.08-1.8.23-.62.14-1.23.29-1.86.4-.75.13-1.5.1-2.24-.07-.14-.04-.26-.08-.4-.11-.04-.02-.09-.04-.15-.05.03.11.07.21.1.31.27.85.3,1.72.14,2.59-.08.49-.2.98-.29,1.46-.14.66-.24,1.32-.18,1.99.02.34.1.67.22.98h-.02c-.29-.55-.73-.97-1.24-1.3-.43-.29-.89-.55-1.34-.81-.8-.45-1.56-.94-2.15-1.64-.27-.32-.5-.66-.7-1.03-.01-.03-.04-.06-.06-.11-.08.16-.16.29-.24.43-.33.57-.76,1.06-1.27,1.49-.46.39-.97.71-1.49,1.03-.46.3-.93.6-1.34.97-.37.33-.68.72-.92,1.18.01-.06.03-.12.05-.17.02-.07.03-.13.04-.19.11-.45.12-.9.07-1.36-.08-.63-.23-1.24-.38-1.86-.19-.81-.3-1.62-.23-2.45.04-.41.12-.81.25-1.19,0-.02.01-.03.01-.06-.03,0-.05,0-.06.01-1.07.37-2.15.41-3.25.14-.48-.12-.96-.24-1.44-.37-.67-.16-1.34-.28-2.03-.19-.19.03-.37.07-.56.11.81-.38,1.36-1.02,1.83-1.73.38-.56.74-1.14,1.12-1.69.55-.79,1.25-1.39,2.11-1.81.01-.01.03-.02.05-.03-.02-.02-.03-.03-.03-.03-1.06-.47-1.8-1.28-2.41-2.23-.32-.49-.62-.98-.94-1.47-.31-.48-.68-.91-1.15-1.25-.14-.1-.3-.19-.4-.26.21.04.47.09.73.12.57.06,1.13-.04,1.69-.17.57-.13,1.14-.29,1.7-.42.73-.17,1.48-.21,2.22-.07.25.04.5.13.74.19.04,0,.07.02.09.02-.07-.28-.15-.54-.21-.81-.17-.77-.15-1.54,0-2.32.11-.62.25-1.24.36-1.87.11-.61.15-1.24,0-1.85-.04-.17-.09-.32-.14-.48.09.13.17.27.27.39.3.41.68.72,1.1.99.41.26.82.49,1.24.72.86.48,1.68,1.03,2.27,1.83.2.27.36.56.53.84.01.03.03.06.06.1.07-.12.13-.24.2-.37.32-.58.75-1.07,1.25-1.5.47-.42,1.02-.75,1.54-1.09.5-.32,1-.64,1.43-1.07.3-.31.55-.64.74-1.02ZM572.59,25.3c0-.05-.03-.1-.05-.16-.43.27-.86.53-1.27.81-.61.42-1.1.94-1.49,1.57-.38.62-.61,1.28-.79,1.98-.16.69-.27,1.38-.34,2.07-.01.12-.02.25-.04.36-.03-.1-.04-.2-.05-.29-.14-1.07-.33-2.11-.68-3.13-.33-.94-.87-1.74-1.67-2.34-.38-.29-.79-.53-1.22-.76-.13-.07-.26-.15-.41-.22l-.04.09c-.08.33-.16.65-.24.97-.15.6-.22,1.21-.18,1.82.06.9.36,1.72.79,2.49.41.75.91,1.45,1.42,2.13.05.05.08.1.11.14-.44-.32-.88-.66-1.35-.97-.6-.41-1.22-.77-1.91-1.01-.85-.3-1.71-.38-2.59-.18-.53.12-1.05.28-1.58.42-.02,0-.02,0-.05.02.2.35.4.68.6,1.02.76,1.31,1.88,2.1,3.34,2.48.65.17,1.31.28,1.97.36.23.03.46.04.69.07-.17.04-.32.05-.48.08-.95.15-1.88.34-2.77.69-1.13.43-2.04,1.14-2.69,2.17-.22.37-.44.74-.66,1.12l-.08.14.05.02c.4.11.81.22,1.21.32.58.13,1.18.17,1.78.1.7-.1,1.36-.37,1.98-.7.78-.43,1.51-.96,2.21-1.51.11-.09.23-.18.34-.27h0s-.04.06-.06.08c-.07.1-.14.18-.21.28-.6.8-1.18,1.62-1.59,2.54-.32.69-.49,1.41-.5,2.18,0,.66.13,1.29.3,1.91.06.21.12.42.17.63.03-.01.06-.03.08-.04.33-.2.65-.39.98-.59,1.23-.77,2-1.87,2.39-3.26.19-.66.31-1.33.4-2.01.03-.24.06-.49.09-.76,0-.06.02-.11.02-.16.04.29.08.56.12.82.14.88.31,1.74.6,2.57.3.89.79,1.67,1.52,2.28.48.39,1.02.69,1.55.99l.26.13.02-.06c.09-.36.18-.73.26-1.09.13-.53.21-1.06.19-1.6-.03-.82-.28-1.59-.64-2.32-.41-.8-.92-1.54-1.47-2.26-.09-.11-.17-.23-.26-.34.04.02.07.05.1.07.76.6,1.56,1.18,2.44,1.62.75.38,1.54.6,2.38.63.62.02,1.22-.1,1.81-.25l.93-.25s-.03-.05-.04-.07c-.18-.29-.36-.58-.54-.88-.76-1.3-1.88-2.14-3.32-2.55-.72-.2-1.45-.34-2.19-.43-.23-.03-.46-.05-.69-.08.23-.04.44-.07.66-.11.84-.14,1.66-.31,2.46-.59,1.27-.43,2.25-1.21,2.93-2.38.2-.36.41-.72.62-1.07,0-.02,0-.04,0-.04-.02,0-.02-.02-.03-.02-.39-.1-.78-.2-1.18-.29-1.29-.31-2.52-.12-3.68.52-.71.39-1.38.84-2.02,1.33-.24.18-.48.36-.71.54,0-.01,0-.02,0-.02.5-.63.97-1.27,1.39-1.95.32-.53.59-1.08.76-1.66.21-.71.27-1.42.18-2.14-.07-.59-.25-1.16-.41-1.73Z"/><path class="cls-1" d="M572.54,25.14c.02.07.04.11.05.16.16.57.33,1.13.41,1.73.09.72.03,1.44-.18,2.14-.17.59-.44,1.14-.76,1.66-.42.68-.89,1.33-1.39,1.95l-.39-.19s.04-.07.05-.1c.2-.45.29-.93.36-1.41.11-.74.21-1.47.31-2.15-.09.15-.21.35-.34.53-.36.5-.72,1-1.07,1.5-.24.34-.44.71-.58,1.1l-.4-.13c.02-.12.03-.24.04-.36.07-.69.18-1.38.34-2.07.17-.69.41-1.36.79-1.98.39-.62.88-1.15,1.49-1.57.41-.28.84-.54,1.27-.81Z"/><path class="cls-1" d="M564.59,25.19c.14.08.27.15.41.22.42.23.84.46,1.22.76.8.6,1.34,1.4,1.67,2.34.35,1.02.54,2.06.68,3.13.01.09.02.19.05.29l.4.13c-.04.13-.08.25-.11.38-.11.48-.15.96-.14,1.45h-.35c.03-1.02-.17-1.97-.78-2.81-.34-.48-.69-.96-1.03-1.44-.16-.23-.3-.45-.47-.69.03.12.06.21.07.3.09.62.19,1.23.29,1.84.06.45.14.9.3,1.33.23.61.62,1.11,1.07,1.57l-.25.25c-.4-.39-.85-.72-1.36-.96l.21-.46s-.07-.09-.11-.14c-.52-.68-1.01-1.38-1.42-2.13-.43-.77-.74-1.59-.79-2.49-.04-.61.04-1.22.18-1.82.08-.32.15-.64.24-.97l.04-.09Z"/><path class="cls-1" d="M577.09,30.42c.39.09.79.19,1.18.29,0,0,.01.01.03.02,0,0,0,.03,0,.04-.21.35-.42.71-.62,1.07-.68,1.16-1.66,1.95-2.93,2.38-.8.28-1.62.45-2.46.59-.23.04-.44.07-.66.11l-.16.46c-.16-.06-.33-.11-.5-.15-.34-.08-.69-.11-1.03-.11v-.36c.91-.02,1.77-.25,2.51-.83.42-.31.84-.65,1.27-.96.29-.22.57-.43.85-.63-.12.03-.25.06-.38.09-.64.12-1.28.24-1.91.35-.43.08-.87.18-1.28.38-.55.25-1.01.62-1.42,1.05l-.25-.25c.39-.41.74-.86.98-1.38l.39.19s0,0,0,.02c.23-.18.47-.36.71-.54.64-.48,1.31-.94,2.02-1.33,1.16-.64,2.39-.83,3.68-.52Z"/><path class="cls-1" d="M570.66,29.46c.13-.18.25-.38.34-.53-.1.68-.2,1.41-.31,2.15-.07.48-.16.95-.36,1.41-.01.03-.03.07-.05.1-.24.52-.58.97-.98,1.38-.15.16-.32.31-.5.48,0-.03-.02-.05-.02-.07,0-.17-.02-.32-.02-.49-.01-.49.03-.97.14-1.45.03-.13.07-.26.11-.38.14-.39.34-.76.58-1.1.36-.5.72-1,1.07-1.5Z"/><path class="cls-1" d="M574.17,32.45c.12-.03.25-.06.38-.09-.28.2-.57.41-.85.63-.42.31-.84.65-1.27.96-.75.57-1.6.81-2.52.83-.27,0-.53,0-.81,0,0-.01,0-.02,0-.03l.28-.34c.05-.06.11-.12.18-.18.41-.43.87-.8,1.42-1.05.41-.2.85-.29,1.28-.38.64-.11,1.27-.23,1.91-.35Z"/><path class="cls-1" d="M566.2,29.25c-.01-.09-.04-.19-.07-.3.17.24.31.47.47.69.34.48.69.96,1.03,1.44.61.83.81,1.79.78,2.81,0,0,0,.02,0,.03,0,.17-.02.35-.02.52,0,0-.02,0-.03,0-.17-.15-.34-.3-.5-.46-.45-.46-.84-.97-1.07-1.57-.16-.43-.24-.88-.3-1.33-.1-.61-.19-1.22-.29-1.84Z"/><path class="cls-1" d="M563.21,30.85c.68.24,1.31.6,1.91,1.01.46.31.91.65,1.35.97l-.21.46c-.46-.21-.94-.29-1.43-.35-.58-.08-1.17-.18-1.75-.26-.12-.02-.23-.05-.33-.07.05.04.11.07.16.11.5.36,1.02.71,1.52,1.08.34.24.67.49,1.05.66.09.05.18.08.29.12l-.16.46c-.24-.03-.47-.05-.69-.07-.66-.08-1.32-.19-1.97-.36-1.46-.38-2.58-1.18-3.34-2.48-.2-.34-.39-.67-.6-1.02.02,0,.03-.02.05-.02.52-.14,1.04-.3,1.58-.42.88-.2,1.74-.12,2.59.18Z"/><path class="cls-1" d="M574.49,37.35s-.02,0-.03-.02c-.17-.11-.35-.2-.51-.32-.54-.38-1.08-.77-1.62-1.16-.28-.19-.57-.35-.88-.46l.16-.46c.23.03.46.05.69.08.74.09,1.47.22,2.19.43,1.44.41,2.56,1.25,3.32,2.55.17.3.36.59.54.88,0,.02.02.05.04.07l-.93.25c-.59.15-1.19.27-1.81.25-.85-.03-1.63-.25-2.38-.63-.88-.44-1.67-1.02-2.44-1.62-.04-.02-.06-.05-.1-.07.09.11.17.23.26.34.55.72,1.06,1.46,1.47,2.26.36.73.61,1.49.64,2.32.02.54-.06,1.07-.19,1.6-.08.36-.17.72-.26,1.09l-.02.06-.26-.13c-.53-.3-1.07-.6-1.55-.99-.73-.61-1.22-1.39-1.52-2.28-.29-.83-.46-1.7-.6-2.57-.04-.27-.08-.53-.12-.82,0,.06-.02.11-.02.16l-.47-.06c.06-.16.11-.31.15-.47.17-.65.2-1.31.15-1.98v-.14c-.21.19-.4.37-.57.54l-.24-.24c.18-.18.34-.37.49-.56l.02-.05c-.23,0-.47-.03-.69-.01v-.35c.23,0,.47-.02.72-.05-.13-.14-.24-.27-.35-.39l-.14-.14.25-.25c.16.16.33.31.5.46.01,0,.02,0,.03,0,0-.18.02-.35.02-.52,0,0,0-.02,0-.03h.35c0,.16.01.32.02.48,0,.02.01.04.02.07.17-.17.35-.32.5-.48l.25.25c-.06.06-.12.11-.18.18l-.28.34s0,.02,0,.03c.27,0,.54,0,.81,0v.36c-.25,0-.5.01-.75.04-.02,0-.04.01-.09.02.24.25.46.5.7.72.6.55,1.28.92,2.09,1.04.88.14,1.75.27,2.63.4ZM568.79,35.49c-.01.1-.01.18-.02.25-.05.57-.02,1.13.11,1.69.14.62.46,1.16.82,1.65.34.48.69.95,1.03,1.43.11.16.21.32.33.52-.03-.16-.06-.27-.09-.4-.1-.67-.21-1.33-.3-2-.11-.76-.37-1.45-.85-2.07-.31-.39-.64-.74-1.04-1.07Z"/><path class="cls-1" d="M571.45,35.39c.31.11.6.27.88.46.54.39,1.08.78,1.62,1.16.16.12.34.21.51.32.01.01.02.02.03.02-.88-.13-1.75-.26-2.63-.4-.81-.13-1.49-.5-2.09-1.04-.24-.22-.46-.47-.7-.72.05,0,.07-.02.09-.02.25-.02.5-.04.76-.04.34,0,.69.03,1.03.11.18.03.35.08.5.15Z"/><path class="cls-1" d="M564.82,32.94c.49.06.97.14,1.43.35.51.24.96.57,1.36.96l.14.14c.11.12.21.25.35.39-.25.03-.49.05-.72.05-.11,0-.22,0-.33,0-.45-.02-.89-.09-1.31-.25-.1-.03-.19-.07-.29-.12-.38-.17-.71-.42-1.05-.66-.5-.36-1.01-.72-1.52-1.08-.05-.04-.11-.07-.16-.11.1.02.22.05.33.07.58.08,1.17.18,1.75.26Z"/><path class="cls-1" d="M567.05,34.83c.11,0,.23,0,.33,0v.35c-.7.01-1.38.14-2.01.45-.41.21-.77.52-1.14.8-.47.35-.94.71-1.41,1.07-.05.04-.1.06-.15.1,0,0,0,0,0,.01.01,0,.03,0,.05,0,.2-.05.4-.1.61-.14.63-.12,1.25-.23,1.88-.34.48-.09.93-.24,1.34-.5.37-.23.7-.51,1-.81l.24.24c-.38.4-.71.84-.95,1.33-.02.06-.05.11-.07.16l-.37-.27s.04-.05.06-.07h0c-.11.08-.23.17-.34.26-.7.55-1.43,1.08-2.21,1.51-.62.34-1.27.61-1.98.7-.6.07-1.19.03-1.78-.1-.41-.1-.81-.21-1.21-.32l-.05-.02.08-.14c.22-.38.44-.76.66-1.12.65-1.03,1.55-1.74,2.69-2.17.89-.34,1.83-.54,2.77-.69.16-.03.31-.04.48-.08l.16-.46c.42.16.86.23,1.31.25Z"/><path class="cls-1" d="M568.08,35.2l-.02.05c-.15.19-.32.39-.49.56-.3.31-.63.58-1,.81-.42.25-.87.4-1.34.5-.63.12-1.25.23-1.88.34-.21.04-.41.09-.61.14-.02,0-.04,0-.05,0,0,0,0-.01,0-.01.05-.04.1-.06.15-.1.47-.35.94-.71,1.41-1.07.37-.28.73-.58,1.14-.8.63-.32,1.31-.44,2.01-.45.22-.01.46,0,.69.01Z"/><path class="cls-1" d="M568.77,35.74c0-.08,0-.15.02-.25.4.32.74.68,1.04,1.07.47.62.73,1.32.85,2.07.09.67.2,1.33.3,2,.03.12.05.24.09.4-.12-.19-.23-.36-.33-.52-.34-.47-.69-.95-1.03-1.43-.36-.5-.68-1.03-.82-1.65-.13-.56-.16-1.12-.11-1.69Z"/><path class="cls-1" d="M568.37,35.51v.14c.06.67.03,1.33-.14,1.98-.04.17-.09.32-.15.47-.13.32-.3.61-.51.9-.39.54-.77,1.07-1.15,1.61-.11.15-.2.3-.3.46.04-.2.08-.39.12-.59.09-.55.17-1.12.25-1.68.07-.42.14-.85.3-1.25.02-.05.05-.1.07-.16.24-.49.57-.93.95-1.33.18-.18.36-.35.56-.54Z"/><path class="cls-1" d="M566.42,37.27l.37.27c-.16.4-.24.83-.3,1.25-.08.56-.16,1.13-.25,1.68-.03.2-.07.39-.12.59.1-.16.19-.31.3-.46.38-.54.77-1.07,1.15-1.61.2-.29.38-.58.51-.9l.47.06c-.03.26-.05.51-.09.76-.09.68-.21,1.35-.4,2.01-.39,1.38-1.17,2.49-2.39,3.26-.33.2-.65.39-.98.59-.02,0-.05.03-.08.04-.06-.21-.12-.42-.17-.63-.17-.62-.3-1.25-.3-1.91.01-.77.18-1.49.5-2.18.41-.92.99-1.73,1.59-2.54.07-.1.14-.18.21-.28Z"/></svg>